<svg xmlns="http://www.w3.org/2000/svg" version="1.1" xmlns:xlink="http://www.w3.org/1999/xlink" xmlns:svgjs="http://svgjs.dev/svgjs" width="1000" height="1000" viewBox="0 0 1000 1000"><rect width="1000" height="1000" fill="#000000"></rect><g transform="matrix(0.7,0,0,0.7,149.57575757575756,413.6181745290854)"><svg viewBox="0 0 396 98" data-background-color="#046380" preserveAspectRatio="xMidYMid meet" height="247" width="1000" xmlns="http://www.w3.org/2000/svg" xmlns:xlink="http://www.w3.org/1999/xlink"><g id="tight-bounds" transform="matrix(1,0,0,1,0.2400000000000091,-0.03864143348971538)"><svg viewBox="0 0 395.52 98.07728286697943" height="98.07728286697943" width="395.52"><g><svg viewBox="0 0 557.3289042426197 138.20111395465997" height="98.07728286697943" width="395.52"><g transform="matrix(1,0,0,1,0,19.10015395465996)"><svg viewBox="0 0 395.52000000000004 100.00080604534006" height="100.00080604534006" width="395.52000000000004"><g><svg viewBox="0 0 395.52000000000004 100.00080604534006" height="100.00080604534006" width="395.52000000000004"><g><svg viewBox="0 0 395.52000000000004 100.00080604534006" height="100.00080604534006" width="395.52000000000004"><g transform="matrix(1,0,0,1,0,0)"><svg width="395.52000000000004" viewBox="2.8299999237060547 -38.66999816894531 155.0699920654297 39.209999084472656" height="100.00080604534006" data-palette-color="#ffffff"><path d="M16.92 0L16.92-31.37 2.83-31.37 2.83-38.16 38.75-38.16 38.75-31.37 24.66-31.37 24.66 0 16.92 0ZM44.75-19.19L44.75-19.19Q44.75-23.51 46.34-27.1 47.92-30.69 50.79-33.26 53.66-35.84 57.68-37.26 61.69-38.67 66.57-38.67L66.57-38.67Q71.43-38.67 75.46-37.26 79.49-35.84 82.36-33.26 85.23-30.69 86.81-27.1 88.4-23.51 88.4-19.19L88.4-19.19Q88.4-14.84 86.81-11.22 85.23-7.59 82.36-4.98 79.49-2.37 75.46-0.92 71.43 0.54 66.57 0.54L66.57 0.54Q61.69 0.54 57.68-0.92 53.66-2.37 50.79-4.98 47.92-7.59 46.34-11.22 44.75-14.84 44.75-19.19ZM52.49-19.19L52.49-19.19Q52.49-16.24 53.55-13.87 54.61-11.5 56.5-9.83 58.4-8.15 60.97-7.25 63.55-6.35 66.57-6.35L66.57-6.35Q69.6-6.35 72.18-7.25 74.75-8.15 76.63-9.83 78.51-11.5 79.59-13.87 80.66-16.24 80.66-19.19L80.66-19.19Q80.66-22.14 79.59-24.49 78.51-26.83 76.63-28.45 74.75-30.08 72.18-30.93 69.6-31.79 66.57-31.79L66.57-31.79Q63.55-31.79 60.97-30.93 58.4-30.08 56.5-28.45 54.61-26.83 53.55-24.49 52.49-22.14 52.49-19.19ZM97.02 0L97.02-38.16 104.76-38.16 118.62-24.24 132.49-38.16 140.23-38.16 140.23 0 132.49 0 132.49-27.44 118.62-14.09 104.76-27.44 104.76 0 97.02 0ZM150.11 0L150.11-38.16 157.9-38.16 157.9 0 150.11 0Z" opacity="1" transform="matrix(1,0,0,1,0,0)" fill="#ffffff" class="undefined-text-0" data-fill-palette-color="primary" id="text-0"></path></svg></g></svg></g></svg></g></svg></g><g transform="matrix(1,0,0,1,419.1277902879597,0)"><svg viewBox="0 0 138.20111395465997 138.20111395465997" height="138.20111395465997" width="138.20111395465997"><g data-palette-color="#ffffff"><rect width="37.77497114760706" height="138.20111395465997" fill="#ffffff" stroke="transparent" data-fill-palette-color="accent" x="0" fill-opacity="1"></rect><rect width="37.77497114760706" height="138.20111395465997" fill="#ffffff" stroke="transparent" data-fill-palette-color="accent" x="46.06703798488666" fill-opacity="0.75"></rect><rect width="37.77497114760706" height="138.20111395465997" fill="#ffffff" stroke="transparent" data-fill-palette-color="accent" x="92.13407596977332" fill-opacity="0.5"></rect></g></svg></g></svg></g><defs></defs></svg><rect width="395.52" height="98.07728286697943" fill="none" stroke="none" visibility="hidden"></rect></g></svg></g></svg>